<?xml version="1.0" encoding="utf-8"?>
<!-- Generator: Adobe Illustrator 19.0.0, SVG Export Plug-In . SVG Version: 6.00 Build 0)  -->
<svg version="1.1" id="layer" xmlns="http://www.w3.org/2000/svg" xmlns:xlink="http://www.w3.org/1999/xlink" x="0px" y="0px"
	 viewBox="-153 -46 652 652" style="enable-background:new -153 -46 652 652;" xml:space="preserve">
<style type="text/css">
	.st0{fill:#EE3124;}
	.st1{fill:#FFFFFF;}
	.st2{fill:#381460;}
</style>
<path class="st0" d="M-5.6,172.4v71c0,36-24.2,75.3-63.1,90.9c-38.9-15.6-63.1-54.9-63.1-90.9v-71H-5.6z"/>
<polygon class="st1" points="-108.3,243.7 -68.6,191.4 -28.9,243.7 -68.6,295.9 "/>
<path class="st0" d="M-72.3,250.9c0,13.5,3.2,29.5,3.6,31.2c0,0,0,0,0,0c0,0,0,0,0,0c0.4-1.7,3.6-17.7,3.6-31.2v-3.4h11.8v0.9
	c0,2,1.6,4.4,3.7,4.4c2,0,3.7-2.4,3.7-4.4v-0.9h0.9c2,0,4.4-1.6,4.4-3.7c0-2-2.4-3.7-4.4-3.7h-0.9v-0.9c0-2-1.6-4.4-3.7-4.4
	c-2,0-3.7,2.4-3.7,4.4v0.9h-11.8v-13.9h0.9c2,0,4.4-1.6,4.4-3.7c0-2-2.4-3.7-4.4-3.7h-0.9v-0.9c0-2-1.6-4.4-3.7-4.4
	c-2,0-3.7,2.4-3.7,4.4v0.9h-0.9c-2,0-4.4,1.6-4.4,3.7c0,2,2.4,3.7,4.4,3.7h0.9v13.9h-11.8v-0.9c0-2-1.6-4.4-3.7-4.4
	c-2,0-3.7,2.4-3.7,4.4v0.9h-0.9c-2,0-4.4,1.6-4.4,3.7c0,2,2.4,3.7,4.4,3.7h0.9v0.9c0,2,1.6,4.4,3.7,4.4c2,0,3.7-2.4,3.7-4.4v-0.9
	h11.8V250.9z"/>
<path class="st2" d="M-115.4,373.8h-8.9l4.4-10.2L-115.4,373.8z M-118.1,359.4h-3.5l-10.2,22.6h3.9l2.1-4.8h11.8l2.1,4.8h3.9
	l-10.1-22.3L-118.1,359.4z M-91.4,372.9c0,4.3-2.9,6.2-5.7,6.2c-2.9,0-5.8-1.9-5.8-6.1v-13.5h-3.6v13.5c0,6.6,4.7,9.5,9.3,9.5
	c4.6,0,9.3-2.9,9.3-9.5v-13.5h-3.6V372.9z M-73.8,368.6c-3.3-0.5-5.5-1.3-5.5-3.2c0-2.1,2.6-3.2,5.3-3.2c2.6,0,4.7,1,5.8,2.7
	l0.2,0.4l2.8-1.7l-0.2-0.4c-1.7-2.8-4.6-4.2-8.6-4.2c-2.3,0-5.4,0.7-7.2,2.5c-1.1,1.1-1.6,2.4-1.6,4c0,5.1,5.2,5.9,8.7,6.4
	c3.5,0.5,5.9,1.3,5.9,3.5c0,3.4-4.4,3.7-5.7,3.7c-2.1,0-5-0.6-6.6-3.6l-0.2-0.4l-2.9,1.8l0.2,0.4c1.5,3.3,5,5.3,9.5,5.3
	c4.5,0,9.3-1.8,9.3-7C-64.8,370.4-69.4,369.3-73.8,368.6 M-63.1,362.7h7.4V382h3.5v-19.3h7.4v-3.3h-18.4V362.7z M-37.4,362.7h6.7
	c2.8,0,4.2,2.1,4.2,4.1c0,1.9-1.1,4-4.4,4h-6.6V362.7z M-22.9,366.8c0-3.6-2.4-7.4-7.8-7.4H-41V382h3.6v-7.8h4.6l6.8,7.8h4.6
	l-7.3-8.1C-25,373.2-22.9,370.6-22.9,366.8 M-3.8,373.8h-8.9l4.4-10.2L-3.8,373.8z M-6.5,359.4h-3.5L-20.2,382h3.9l2.1-4.8h11.8
	l2.1,4.8h3.9l-10.1-22.3L-6.5,359.4z M10.8,359.4H7.2V382h15.4v-3.4H10.8V359.4z M25.8,382h3.6v-22.6h-3.6V382z M49.3,373.8h-8.9
	l4.4-10.2L49.3,373.8z M46.6,359.4h-3.5L32.9,382h3.9l2.1-4.8h11.8l2.1,4.8h3.9l-10.1-22.3L46.6,359.4z M75.5,375.2l-12.6-15.8h-2.5
	V382h3.6v-15.8L76.6,382h2.5v-22.6h-3.6V375.2z M113.2,376.6c-1.5,1.5-3.7,2.4-5.9,2.4c-5.9,0-8.1-4.4-8.2-8.2
	c0-4.1,2.5-8.3,8.2-8.3c2.2,0,4.3,0.8,5.8,2.3l0.3,0.3l2.5-2.3l-0.3-0.3c-2.2-2.2-5.2-3.4-8.3-3.4c-3.4,0-6.4,1.1-8.5,3.3
	c-2.1,2.2-3.3,5.3-3.3,8.6c0,5.8,3.7,11.6,11.8,11.6c3.2,0,6.1-1.1,8.4-3.3l0.3-0.3l-2.5-2.5L113.2,376.6z M133.8,373.8h-8.9
	l4.4-10.2L133.8,373.8z M131.1,359.4h-3.5L117.4,382h3.9l2.1-4.8h11.8l2.1,4.8h3.9l-10.1-22.3L131.1,359.4z M140.3,362.7h7.4V382
	h3.5v-19.3h7.4v-3.3h-18.4V362.7z M177.6,368.8h-11.5v-9.4h-3.6V382h3.6v-9.8h11.5v9.8h3.6v-22.6h-3.6V368.8z M196.9,379
	c-5.5,0-7.9-4.2-7.9-8.3c0-4.2,2.4-8.4,7.9-8.4c5.4,0.1,7.9,4.3,7.9,8.4C204.7,374.8,202.3,379,196.9,379 M196.9,358.9
	c-6.8,0-11.5,4.9-11.5,11.8c0,5.8,3.6,11.7,11.5,11.7c7.9,0,11.4-6,11.4-11.7C208.3,365.1,204.7,358.9,196.9,358.9 M216,359.4h-3.6
	V382h15.4v-3.4H216V359.4z M231,382h3.6v-22.6H231V382z M256.4,376.6c-1.5,1.5-3.7,2.4-5.9,2.4c-5.9,0-8.1-4.4-8.2-8.2
	c0-4.1,2.5-8.3,8.2-8.3c2.2,0,4.3,0.8,5.8,2.3l0.3,0.3l2.5-2.3l-0.3-0.3c-2.2-2.2-5.2-3.4-8.3-3.4c-3.4,0-6.4,1.1-8.5,3.3
	c-2.1,2.2-3.3,5.3-3.3,8.6c0,5.8,3.7,11.6,11.8,11.6c3.2,0,6.1-1.1,8.4-3.3l0.3-0.3l-2.5-2.5L256.4,376.6z M289.3,372.9
	c0,4.3-2.9,6.2-5.7,6.2c-2.9,0-5.8-1.9-5.8-6.1v-13.5h-3.6v13.5c0,6.6,4.7,9.5,9.3,9.5c4.6,0,9.3-2.9,9.3-9.5v-13.5h-3.6V372.9z
	 M313.9,375.2l-12.6-15.8h-2.5V382h3.6v-15.8l12.6,15.8h2.5v-22.6h-3.6V375.2z M323.5,382h3.6v-22.6h-3.6V382z M334.8,359.4h-4
	l9.4,22.7h3.5l9.4-22.7h-3.9l-7.2,17.8L334.8,359.4z M360.3,372h12v-3.4h-12v-5.9h12.6v-3.4h-16.1V382h16.6v-3.5h-13.1V372z
	 M381.7,362.7h6.7c2.8,0,4.2,2.1,4.2,4.1c0,1.9-1.1,4-4.4,4h-6.6V362.7z M396.2,366.8c0-3.6-2.4-7.4-7.8-7.4h-10.3V382h3.6v-7.8h4.6
	l6.8,7.8h4.6l-7.3-8.1C394.1,373.2,396.2,370.6,396.2,366.8 M409.7,368.6c-3.3-0.5-5.5-1.3-5.5-3.2c0-2.1,2.6-3.2,5.3-3.2
	c2.5,0,4.7,1,5.8,2.7l0.2,0.4l2.8-1.7l-0.2-0.4c-1.7-2.8-4.6-4.2-8.6-4.2c-2.3,0-5.4,0.7-7.2,2.5c-1.1,1.1-1.6,2.4-1.6,4
	c0,5.1,5.2,5.9,8.7,6.4c3.5,0.5,5.9,1.3,5.9,3.5c0,3.4-4.4,3.7-5.7,3.7c-2.1,0-5-0.6-6.6-3.6l-0.2-0.4l-2.9,1.8l0.2,0.4
	c1.5,3.3,5,5.3,9.5,5.3c4.5,0,9.3-1.8,9.3-7C418.7,370.4,414,369.3,409.7,368.6 M423.3,382h3.6v-22.6h-3.6V382z M451.5,359.4h-20.8
	v3.3h7.4V382h3.5v-19.3h7.7l6.7,10.2v9.1h3.7v-9.1l8.5-12.7l0.1-0.2v-0.6h-3.9l-6.5,9.9L451.5,359.4z"/>
<path class="st2" d="M468.2,172.4v99.1c0,52.4-41,60.4-59.2,60.4c-32.8,0-67.5-11.4-67.5-61.8v-97.8h30.3v99.8
	c0,29.4,14.1,46.3,38.3,46.3c22.6,0,40.6-14.8,40.6-45.1V172.4H468.2z M255.8,331.9c22.1,0,46-7.5,62.7-24.2l-5.9-8.5
	c-15.6,11.6-30.8,19.6-50.2,19.6c-37.6,0-61.8-31-61.8-68.6c0-32.6,21.4-66.5,57.9-66.5c11.5,0,25.6,4.8,32.7,13.8
	c-2.7,2.9-4.4,6.7-4.4,11c0,8.8,7.1,15.9,15.9,15.9c8.8,0,15.9-7.1,15.9-15.9c0-7.5-5.9-16-12.5-21.4c-13-11.2-31.7-17.1-46.7-17.1
	c-54.7,0-88,39.6-88,82.5C171.5,295.9,203.4,331.9,255.8,331.9 M117.4,271.7l-27.8-74.4L62,271.7H117.4z M122,284.2H57.4l-16.8,45.3
	H24.1l60.1-157h23.6l60.5,156.8h-29.5L122,284.2z"/>
</svg>
