<?xml version="1.0" encoding="UTF-8" standalone="no"?>
<svg xmlns="http://www.w3.org/2000/svg" version="1.2" baseProfile="tiny" viewBox="0.00 0.00 225.00 225.00">
<path fill="#3c1053" d="
  M 0.00 0.00
  L 225.00 0.00
  L 225.00 225.00
  L 0.00 225.00
  L 0.00 0.00
  Z"
/>
<g fill="#ffffff">
<path d="
  M 133.87 123.45
  C 141.72 127.06 150.38 124.89 156.93 119.46
  Q 157.49 118.99 157.81 119.65
  L 158.77 121.57
  Q 159.04 122.11 158.56 122.49
  Q 146.90 131.80 132.25 128.49
  C 110.46 123.56 107.16 95.11 125.41 83.77
  Q 139.77 74.86 153.78 83.38
  Q 156.19 84.84 157.78 87.43
  C 164.45 98.26 144.60 98.74 150.39 87.98
  Q 150.65 87.49 150.23 87.14
  Q 145.41 83.12 138.99 83.77
  C 119.37 85.79 117.45 115.92 133.87 123.45
  Z"
/>
<path d="
  M 97.95 114.75
  L 78.35 114.75
  A 0.38 0.38 0.0 0 0 77.99 115.00
  L 73.02 128.50
  A 0.38 0.38 0.0 0 1 72.66 128.75
  L 68.33 128.75
  A 0.38 0.38 0.0 0 1 67.98 128.23
  L 86.38 80.24
  A 0.38 0.38 0.0 0 1 86.73 80.00
  L 93.51 80.00
  A 0.38 0.38 0.0 0 1 93.86 80.24
  L 112.34 128.23
  A 0.38 0.38 0.0 0 1 111.99 128.75
  L 103.69 128.75
  A 0.38 0.38 0.0 0 1 103.34 128.50
  L 98.30 115.00
  A 0.38 0.38 0.0 0 0 97.95 114.75
  Z"
/>
<path d="
  M 177.37 119.46
  C 181.46 127.73 194.80 126.60 198.41 118.95
  Q 199.92 115.76 199.97 107.18
  Q 200.05 93.87 199.98 80.53
  Q 199.98 80.00 200.51 80.00
  L 204.95 80.00
  Q 205.48 80.00 205.48 80.53
  Q 205.54 93.29 205.50 106.02
  Q 205.47 115.33 203.88 119.12
  C 199.80 128.83 188.97 130.71 179.30 128.26
  C 167.94 125.38 166.32 117.97 166.28 106.86
  Q 166.23 93.71 166.25 80.54
  Q 166.25 80.00 166.79 80.00
  L 175.02 80.00
  A 0.75 0.75 0.0 0 1 175.77 80.76
  Q 175.57 93.79 175.49 107.00
  C 175.47 111.09 175.66 115.99 177.37 119.46
  Z"
/>
<path d="
  M 22.49 138.28
  A 0.83 0.83 0.0 0 1 24.01 138.28
  L 26.80 144.46
  A 0.38 0.38 0.0 0 1 26.19 144.88
  Q 23.12 141.79 20.30 144.78
  A 0.30 0.30 0.0 0 1 19.96 144.84
  Q 19.80 144.75 19.73 144.61
  Q 19.69 144.50 19.76 144.35
  Q 21.00 141.58 22.49 138.28
  Z"
/>
<path d="
  M 32.27 138.07
  A 0.39 0.39 0.0 0 1 33.04 138.16
  L 32.94 143.38
  A 1.01 0.99 -15.7 0 1 32.46 144.21
  C 27.49 147.24 26.69 141.02 27.52 137.97
  A 0.47 0.47 0.0 0 1 28.45 138.05
  L 28.88 142.69
  A 1.41 1.40 -7.7 0 0 30.53 143.94
  C 32.63 143.56 31.89 139.89 32.27 138.07
  Z"
/>
<path d="
  M 38.30 143.97
  A 1.02 0.98 43.7 0 0 38.21 141.97
  C 36.87 141.96 34.83 141.38 34.84 139.73
  C 34.86 137.31 38.59 137.42 39.58 138.68
  A 0.45 0.45 0.0 0 1 39.00 139.34
  Q 37.69 138.57 36.23 139.00
  A 0.66 0.66 0.0 0 0 36.22 140.27
  L 39.09 141.17
  A 1.79 1.79 0.0 0 1 39.50 144.41
  Q 36.87 146.03 34.70 143.78
  A 0.39 0.39 0.0 0 1 35.15 143.16
  Q 36.87 143.98 38.30 143.97
  Z"
/>
<path d="
  M 46.89 138.69
  L 44.81 139.03
  Q 44.25 139.13 44.25 139.70
  L 44.25 144.20
  A 0.61 0.60 -45.4 0 1 43.04 144.21
  L 42.98 139.90
  Q 42.97 139.28 42.38 139.11
  L 41.17 138.75
  A 0.33 0.33 0.0 0 1 41.22 138.11
  Q 44.13 137.69 47.00 138.14
  A 1.67 1.65 39.8 0 0 47.82 138.07
  C 50.31 137.21 55.70 138.53 52.35 142.09
  A 0.56 0.54 -26.4 0 0 52.20 142.51
  Q 52.27 143.72 53.20 144.13
  A 0.37 0.37 0.0 0 1 52.94 144.82
  Q 51.32 144.31 50.51 142.75
  A 0.64 0.64 0.0 0 0 49.70 142.45
  Q 48.70 142.86 48.90 144.14
  Q 48.99 144.75 48.37 144.75
  L 48.00 144.75
  Q 47.50 144.75 47.50 144.25
  L 47.50 139.20
  Q 47.50 138.58 46.89 138.69
  Z"
/>
<path d="
  M 60.54 144.77
  C 59.18 142.33 56.55 143.19 54.98 144.75
  A 0.46 0.46 0.0 0 1 54.24 144.21
  L 57.39 137.96
  A 0.55 0.55 0.0 0 1 58.38 137.98
  L 61.36 144.35
  A 0.46 0.46 0.0 0 1 60.54 144.77
  Z"
/>
<path d="
  M 68.06 143.50
  C 68.39 142.41 67.95 138.82 68.31 138.29
  Q 68.50 138.01 68.82 137.88
  A 0.49 0.49 0.0 0 1 69.49 138.34
  L 69.50 144.12
  Q 69.51 144.75 68.88 144.76
  L 63.10 144.94
  Q 62.49 144.95 62.50 144.35
  L 62.51 138.60
  A 0.60 0.60 0.0 0 1 63.09 138.00
  Q 63.48 137.99 63.69 138.28
  Q 63.81 138.44 63.77 138.74
  Q 63.53 141.00 63.93 143.25
  A 0.51 0.50 -1.4 0 0 64.38 143.67
  L 67.40 143.95
  Q 67.91 143.99 68.06 143.50
  Z"
/>
<path d="
  M 95.20 139.29
  C 89.31 136.91 90.12 146.14 95.20 143.41
  Q 95.74 143.13 95.76 143.73
  Q 95.78 144.46 94.97 144.74
  C 88.17 147.08 88.36 135.12 95.47 138.28
  Q 95.81 138.44 95.74 138.98
  A 0.40 0.39 15.0 0 1 95.20 139.29
  Z"
/>
<path d="
  M 107.25 139.72
  L 107.25 144.47
  Q 107.25 145.04 106.68 144.96
  Q 106.30 144.90 106.29 144.49
  Q 106.27 141.99 105.89 139.49
  Q 105.83 139.09 105.44 138.99
  L 104.23 138.69
  A 0.35 0.35 0.0 0 1 104.30 138.00
  L 109.33 137.80
  A 0.45 0.45 0.0 0 1 109.46 138.68
  L 107.70 139.14
  Q 107.25 139.25 107.25 139.72
  Z"
/>
<path d="
  M 124.96 141.35
  A 3.59 3.59 0.0 0 1 121.37 144.94
  A 3.59 3.59 0.0 0 1 117.78 141.35
  A 3.59 3.59 0.0 0 1 121.37 137.76
  A 3.59 3.59 0.0 0 1 124.96 141.35
  Z"
/>
<path d="
  M 137.64 143.80
  L 140.01 143.48
  A 0.33 0.33 0.0 0 1 140.27 144.06
  C 133.93 149.37 131.39 135.05 139.69 138.07
  Q 140.41 138.33 140.21 139.03
  A 0.52 0.51 -69.5 0 1 139.50 139.36
  C 136.10 137.80 133.92 141.23 136.60 143.49
  Q 137.05 143.87 137.64 143.80
  Z"
/>
<path d="
  M 149.45 143.38
  C 150.22 142.14 149.68 138.73 150.36 138.24
  Q 150.88 137.87 150.95 138.50
  C 152.10 149.13 142.87 144.98 145.53 138.30
  A 0.48 0.48 0.0 0 1 146.46 138.47
  L 146.58 142.61
  A 1.55 1.55 0.0 0 0 149.45 143.38
  Z"
/>
<path d="
  M 154.28 140.73
  C 153.47 141.83 154.53 143.65 153.70 144.70
  A 0.39 0.39 0.0 0 1 153.01 144.45
  L 153.00 138.41
  A 0.45 0.45 0.0 0 1 153.80 138.12
  L 157.03 141.98
  A 0.39 0.39 0.0 0 0 157.71 141.63
  Q 157.30 139.92 157.64 138.12
  A 0.55 0.54 50.2 0 1 158.72 138.22
  L 158.77 144.29
  A 0.57 0.57 0.0 0 1 157.75 144.65
  L 154.65 140.72
  Q 154.46 140.48 154.28 140.73
  Z"
/>
<path d="
  M 172.84 140.74
  L 175.45 140.77
  A 0.52 0.52 0.0 0 1 175.50 141.81
  L 172.47 142.11
  Q 172.02 142.16 172.02 142.61
  L 172.02 143.18
  Q 172.02 143.66 172.50 143.68
  L 175.71 143.87
  A 0.50 0.50 0.0 0 1 175.70 144.87
  L 171.69 145.04
  A 0.67 0.66 88.8 0 1 171.00 144.37
  L 171.00 138.44
  A 0.75 0.74 2.8 0 1 171.82 137.70
  L 175.78 138.11
  A 0.35 0.35 0.0 0 1 175.78 138.80
  L 172.46 139.11
  A 0.49 0.48 82.7 0 0 172.03 139.67
  L 172.11 140.11
  Q 172.21 140.73 172.84 140.74
  Z"
/>
<path d="
  M 178.92 142.89
  L 178.50 144.65
  A 0.51 0.51 0.0 0 1 177.50 144.53
  L 177.50 138.50
  A 0.69 0.69 0.0 0 1 178.07 137.82
  C 180.83 137.35 185.43 138.88 182.08 142.38
  Q 181.68 142.80 182.09 143.21
  L 182.99 144.11
  Q 183.77 144.90 182.67 144.75
  L 182.32 144.70
  A 0.51 0.50 69.4 0 1 182.04 144.57
  L 179.98 142.58
  A 0.64 0.63 -61.2 0 0 178.92 142.89
  Z"
/>
<path d="
  M 185.83 139.66
  L 186.11 140.24
  Q 186.30 140.65 186.75 140.64
  Q 189.79 140.56 190.11 143.45
  A 0.86 0.84 -20.0 0 1 189.72 144.26
  Q 187.00 146.00 184.53 143.95
  Q 183.98 143.49 184.65 143.26
  Q 184.90 143.17 185.16 143.19
  Q 185.37 143.22 185.62 143.41
  Q 187.38 144.82 188.81 143.35
  A 0.64 0.63 -60.0 0 0 188.53 142.30
  L 185.47 141.43
  A 0.90 0.87 -10.0 0 1 185.07 141.16
  C 182.65 138.19 187.81 136.43 189.66 139.06
  A 0.33 0.33 0.0 0 1 189.23 139.53
  Q 187.81 138.72 186.24 138.91
  Q 185.51 139.00 185.83 139.66
  Z"
/>
<path d="
  M 195.83 139.26
  L 194.32 138.63
  A 0.37 0.37 0.0 0 1 194.45 137.91
  L 199.39 137.75
  A 1.25 1.22 70.0 0 1 200.41 138.24
  L 202.04 140.39
  A 0.42 0.42 0.0 0 0 202.77 140.28
  Q 203.37 138.58 204.93 137.76
  A 0.33 0.33 0.0 0 1 205.33 138.27
  Q 202.81 141.04 202.58 144.75
  A 0.30 0.30 0.0 0 1 202.06 144.94
  Q 201.97 144.84 201.88 144.76
  A 0.39 0.38 -66.4 0 1 201.78 144.50
  C 201.90 142.56 200.60 138.22 197.76 139.04
  Q 197.23 139.20 197.25 139.74
  Q 197.34 142.16 196.95 144.48
  Q 196.91 144.76 196.72 144.91
  A 0.28 0.27 -19.8 0 1 196.27 144.70
  L 196.23 139.85
  A 0.64 0.64 0.0 0 0 195.83 139.26
  Z"
/>
<path d="
  M 75.01 143.39
  Q 73.00 143.29 71.50 144.61
  A 0.37 0.37 0.0 0 1 70.91 144.19
  L 73.43 138.27
  A 0.87 0.87 0.0 0 1 75.03 138.26
  L 77.63 144.08
  A 0.40 0.40 0.0 0 1 77.01 144.56
  L 76.01 143.77
  Q 75.57 143.42 75.01 143.39
  Z"
/>
<path d="
  M 80.25 140.95
  L 80.25 144.25
  A 0.57 0.57 0.0 0 1 79.11 144.32
  Q 78.79 141.34 79.17 138.42
  A 0.52 0.51 -61.1 0 1 80.08 138.15
  L 83.13 141.80
  A 0.40 0.40 0.0 0 0 83.84 141.53
  L 83.72 138.57
  A 0.45 0.45 0.0 0 1 84.06 138.11
  L 84.40 138.02
  A 0.28 0.27 82.8 0 1 84.74 138.29
  L 84.75 144.47
  Q 84.76 145.51 84.09 144.71
  L 80.81 140.75
  Q 80.25 140.07 80.25 140.95
  Z"
/>
<path d="
  M 101.51 143.30
  Q 99.15 143.00 97.68 144.66
  A 0.40 0.39 -12.4 0 1 97.02 144.24
  L 99.64 138.32
  A 0.85 0.84 -45.4 0 1 101.18 138.31
  L 103.85 144.14
  A 0.40 0.40 0.0 0 1 103.21 144.59
  L 102.32 143.69
  A 1.42 1.42 0.0 0 0 101.51 143.30
  Z"
/>
<path d="
  M 111.98 142.46
  L 111.62 144.57
  A 0.44 0.44 0.0 0 1 110.75 144.50
  L 110.75 138.50
  Q 110.75 138.01 111.24 138.00
  Q 111.39 138.00 111.54 138.00
  A 0.24 0.23 -84.9 0 1 111.77 138.28
  Q 111.47 140.01 112.58 140.92
  A 1.68 1.68 0.0 0 0 115.31 139.45
  Q 115.23 138.67 115.62 138.19
  A 0.55 0.55 0.0 0 1 116.60 138.52
  L 116.68 144.22
  A 0.66 0.65 -48.3 0 1 115.37 144.30
  L 115.19 142.45
  Q 115.15 142.00 114.70 142.00
  L 112.53 142.00
  Q 112.06 142.00 111.98 142.46
  Z"
/>
<path d="
  M 126.09 141.03
  Q 125.77 139.67 126.08 138.38
  A 0.60 0.60 0.0 0 1 127.26 138.51
  L 127.31 143.16
  A 0.60 0.59 -0.0 0 0 127.91 143.75
  L 130.25 143.75
  A 0.46 0.46 0.0 0 1 130.68 144.05
  Q 130.75 144.23 130.80 144.40
  A 0.38 0.38 0.0 0 1 130.43 144.89
  L 126.88 144.86
  Q 126.29 144.85 126.12 144.29
  Q 125.77 143.15 126.08 141.96
  Q 126.19 141.49 126.09 141.03
  Z"
/>
<path d="
  M 132.9844 144.4225
  A 0.47 0.47 0.0 0 1 132.5120 144.8901
  L 132.4720 144.8898
  A 0.47 0.47 0.0 0 1 132.0045 144.4174
  L 132.0356 138.4775
  A 0.47 0.47 0.0 0 1 132.5080 138.0099
  L 132.5480 138.0102
  A 0.47 0.47 0.0 0 1 133.0155 138.4826
  L 132.9844 144.4225
  Z"
/>
<path d="
  M 161.7453 144.4489
  A 0.43 0.43 0.0 0 1 161.3160 144.8797
  L 160.9360 144.8803
  A 0.43 0.43 0.0 0 1 160.5053 144.4511
  L 160.4947 138.4311
  A 0.43 0.43 0.0 0 1 160.9240 138.0003
  L 161.3040 137.9997
  A 0.43 0.43 0.0 0 1 161.7347 138.4289
  L 161.7453 144.4489
  Z"
/>
<path d="
  M 166.85 142.51
  Q 167.29 140.40 168.27 138.56
  Q 168.58 137.98 169.08 138.04
  Q 169.63 138.12 169.42 138.63
  L 167.33 143.96
  Q 166.39 146.36 165.39 143.98
  L 163.20 138.75
  A 0.52 0.52 0.0 0 1 163.76 138.04
  Q 164.45 138.15 164.65 139.08
  Q 165.07 141.06 166.32 142.63
  Q 166.72 143.14 166.85 142.51
  Z"
/>
<path d="
  M 192.6413 144.1773
  A 0.52 0.52 0.0 0 1 192.1070 144.6826
  L 191.8271 144.6748
  A 0.52 0.52 0.0 0 1 191.3218 144.1405
  L 191.4787 138.5227
  A 0.52 0.52 0.0 0 1 192.0130 138.0174
  L 192.2929 138.0252
  A 0.52 0.52 0.0 0 1 192.7982 138.5595
  L 192.6413 144.1773
  Z"
/>
</g>
<path fill="#da291c" d="
  M 41.89 128.88
  C 33.41 132.49 22.76 116.50 20.77 109.48
  C 18.60 101.82 19.47 90.07 19.51 80.97
  A 0.98 0.97 0.0 0 1 20.49 80.00
  L 57.99 80.00
  Q 58.48 80.00 58.48 80.49
  C 58.54 89.68 59.83 102.44 57.05 110.73
  C 54.85 117.29 48.38 126.11 41.89 128.88
  Z"
/>
<g fill="#3c1053">
<path d="
  M 79.94 110.09
  L 87.87 88.69
  A 0.31 0.31 0.0 0 1 88.45 88.69
  L 96.38 110.09
  A 0.31 0.31 0.0 0 1 96.08 110.50
  L 80.24 110.50
  A 0.31 0.31 0.0 0 1 79.94 110.09
  Z"
/>
<path d="
  M 123.78 141.36
  A 2.41 2.41 0.0 0 1 121.37 143.77
  A 2.41 2.41 0.0 0 1 118.96 141.36
  A 2.41 2.41 0.0 0 1 121.37 138.95
  A 2.41 2.41 0.0 0 1 123.78 141.36
  Z"
/>
<path d="
  M 100.02 140.38
  Q 100.31 140.08 100.70 140.23
  Q 101.44 140.53 101.31 141.57
  A 0.90 0.90 0.0 0 1 99.54 141.67
  Q 99.38 141.04 100.02 140.38
  Z"
/>
<path d="
  M 74.84 142.18
  A 0.83 0.83 0.0 0 1 73.28 141.65
  Q 73.54 140.63 74.26 140.15
  Q 74.80 139.77 74.95 140.41
  Q 75.18 141.39 74.84 142.18
  Z"
/>
</g>
<path fill="#ffffff" d="
  M 39.54 86.44
  L 51.20 101.68
  A 0.58 0.58 0.0 0 1 51.20 102.38
  L 39.53 117.67
  A 0.58 0.58 0.0 0 1 38.61 117.67
  L 27.03 102.40
  A 0.58 0.58 0.0 0 1 27.03 101.70
  L 38.62 86.45
  A 0.58 0.58 0.0 0 1 39.54 86.44
  Z"
/>
<g fill="#1d0736">
<path d="
  M 52.0298 140.1021
  A 1.58 1.21 0.8 0 1 50.4331 141.2899
  A 1.58 1.21 0.8 0 1 48.8702 140.0579
  A 1.58 1.21 0.8 0 1 50.4669 138.8701
  A 1.58 1.21 0.8 0 1 52.0298 140.1021
  Z"
/>
<path d="
  M 181.9106 140.4211
  A 1.66 1.17 10.8 0 1 180.0608 141.2593
  A 1.66 1.17 10.8 0 1 178.6494 139.7989
  A 1.66 1.17 10.8 0 1 180.4992 138.9607
  A 1.66 1.17 10.8 0 1 181.9106 140.4211
  Z"
/>
<path d="
  M 23.23 140.06
  Q 23.61 139.45 23.84 140.14
  L 24.29 141.51
  Q 24.55 142.30 23.72 142.26
  L 22.81 142.22
  Q 21.90 142.17 22.38 141.40
  L 23.23 140.06
  Z"
/>
<path d="
  M 57.90 140.47
  Q 58.81 140.80 58.69 141.61
  A 0.68 0.67 80.0 0 1 58.35 142.10
  Q 57.72 142.46 57.43 142.06
  Q 56.94 141.37 56.96 141.24
  L 57.16 140.26
  Q 57.24 139.85 57.53 140.15
  Q 57.64 140.27 57.75 140.37
  Q 57.81 140.44 57.90 140.47
  Z"
/>
</g>
<path fill="#d60d06" d="
  M 40.75 100.87
  Q 43.29 101.77 44.60 99.86
  A 0.60 0.60 0.0 0 1 45.52 99.78
  L 47.47 101.72
  A 0.50 0.49 45.4 0 1 47.47 102.41
  L 45.32 104.55
  A 0.50 0.49 51.8 0 1 44.55 104.45
  Q 43.60 102.85 41.53 102.99
  A 1.47 1.46 0.4 0 0 40.17 104.32
  L 39.48 112.02
  A 0.39 0.39 0.0 0 1 38.71 112.03
  L 37.91 103.96
  Q 37.86 103.45 37.37 103.31
  Q 34.99 102.61 33.71 104.38
  Q 33.35 104.88 32.91 104.45
  L 30.89 102.48
  A 0.52 0.51 -46.2 0 1 30.88 101.76
  L 32.80 99.81
  Q 33.29 99.31 33.71 99.88
  Q 35.02 101.68 37.52 100.89
  Q 38.00 100.74 38.00 100.23
  L 38.00 97.30
  Q 38.00 96.78 37.54 96.53
  L 37.01 96.25
  Q 36.38 95.91 36.84 95.35
  L 38.67 93.20
  A 0.57 0.57 0.0 0 1 39.53 93.18
  L 41.30 95.11
  Q 41.68 95.52 41.28 95.92
  Q 39.50 97.70 40.39 100.50
  Q 40.47 100.78 40.75 100.87
  Z"
/>
</svg>
