<?xml version="1.0" encoding="UTF-8" standalone="no"?>
<svg xmlns="http://www.w3.org/2000/svg" version="1.2" baseProfile="tiny" viewBox="0.00 0.00 1030.00 764.00">
<g fill="#000000">
<path d="
  M 360.31 0.00
  L 666.44 0.00
  Q 666.60 71.38 666.40 142.75
  Q 666.31 174.63 659.36 205.72
  C 641.60 285.13 587.90 339.57 513.97 369.54
  Q 513.55 369.71 513.12 369.54
  C 440.18 340.46 385.92 285.88 367.87 208.17
  C 362.34 184.36 360.34 160.53 360.30 135.94
  Q 360.17 67.97 360.31 0.00
  Z"
/>
<path d="
  M 1030.00 482.19
  Q 1030.00 482.35 1030.00 482.50
  Q 1013.60 506.48 999.41 531.72
  Q 998.42 533.49 998.42 535.54
  Q 998.48 553.39 999.44 570.91
  A 0.60 0.60 0.0 0 1 998.70 571.53
  Q 992.46 570.04 986.24 571.48
  Q 985.41 571.67 985.43 570.82
  L 986.41 535.87
  Q 986.43 535.19 986.08 534.61
  L 955.03 482.60
  Q 954.70 482.05 955.33 482.18
  Q 962.70 483.75 970.13 482.42
  Q 970.65 482.33 970.90 482.78
  L 993.93 524.70
  A 0.44 0.43 46.4 0 0 994.68 524.72
  Q 1006.96 504.38 1017.25 482.96
  Q 1017.49 482.46 1018.03 482.55
  Q 1023.91 483.46 1030.00 482.19
  Z"
/>
<path d="
  M 0.00 492.41
  L 0.00 491.50
  Q 1.59 487.29 0.00 483.14
  Q 0.00 483.36 0.00 482.46
  Q 32.41 483.59 66.45 482.44
  Q 67.64 482.40 67.30 483.54
  Q 66.01 487.77 67.49 491.92
  Q 67.69 492.49 67.09 492.42
  Q 54.04 490.94 40.91 490.99
  Q 40.31 491.00 40.29 491.60
  Q 38.97 531.25 40.88 570.89
  A 0.64 0.64 0.0 0 1 40.09 571.55
  Q 33.69 570.00 27.29 571.55
  A 0.52 0.51 84.4 0 1 26.66 571.03
  Q 28.17 531.36 27.23 491.66
  Q 27.21 491.03 26.58 491.02
  Q 13.31 490.89 0.00 492.41
  Z"
/>
<path d="
  M 236.96 764.00
  L 233.98 764.00
  Q 224.96 762.41 215.90 764.00
  L 212.20 764.00
  Q 204.24 737.68 192.33 712.78
  Q 192.08 712.25 191.50 712.25
  L 142.76 712.25
  Q 142.27 712.25 142.07 712.70
  Q 130.79 737.63 123.80 764.00
  L 121.01 764.00
  Q 115.27 762.37 109.38 764.00
  L 106.67 764.00
  Q 124.13 725.62 141.12 687.41
  Q 154.61 657.08 167.84 625.19
  Q 167.93 624.97 168.17 625.02
  Q 172.48 625.94 176.84 625.19
  Q 177.33 625.11 177.52 625.57
  Q 179.37 630.31 181.22 634.88
  Q 207.57 699.96 236.96 764.00
  Z
  M 146.44 701.78
  A 0.41 0.41 0.0 0 0 146.82 702.35
  L 187.53 702.14
  A 0.41 0.41 0.0 0 0 187.91 701.57
  L 167.30 654.26
  A 0.41 0.41 0.0 0 0 166.55 654.27
  L 146.44 701.78
  Z"
/>
<path d="
  M 714.96 764.00
  L 711.98 764.00
  Q 702.95 762.42 693.90 764.00
  L 690.16 764.00
  Q 682.22 737.71 670.30 712.76
  Q 670.05 712.25 669.49 712.25
  L 620.75 712.25
  Q 620.25 712.25 620.04 712.71
  Q 608.76 737.65 601.73 764.00
  L 599.00 764.00
  Q 593.19 762.42 587.14 764.00
  L 584.50 764.00
  Q 616.51 695.29 645.84 625.22
  A 0.38 0.37 -71.0 0 1 646.28 625.00
  Q 650.38 625.98 654.52 625.19
  Q 655.10 625.08 655.32 625.63
  Q 683.35 695.44 714.96 764.00
  Z
  M 624.46 701.67
  A 0.49 0.49 0.0 0 0 624.91 702.36
  L 665.38 702.14
  A 0.49 0.49 0.0 0 0 665.83 701.46
  L 645.35 654.40
  A 0.49 0.49 0.0 0 0 644.44 654.40
  L 624.46 701.67
  Z"
/>
<path d="
  M 317.62 764.00
  L 289.21 764.00
  Q 277.15 763.15 265.17 764.00
  L 254.94 764.00
  C 257.75 718.42 258.29 672.42 255.63 626.80
  Q 255.60 626.22 256.18 626.24
  C 278.98 626.98 301.63 625.91 324.47 627.86
  C 353.31 630.31 376.53 646.57 381.97 676.25
  C 390.38 722.02 364.94 759.52 317.62 764.00
  Z
  M 277.64 753.98
  C 294.20 755.70 312.10 756.15 327.57 751.09
  C 357.14 741.40 364.52 706.08 359.90 679.25
  Q 355.40 653.14 333.29 642.13
  C 317.87 634.46 294.56 635.53 277.67 636.90
  A 0.82 0.81 -1.6 0 0 276.92 637.69
  Q 275.59 695.27 276.61 752.86
  Q 276.63 753.87 277.64 753.98
  Z"
/>
<path d="
  M 861.67 764.00
  L 833.21 764.00
  Q 821.28 763.16 809.42 764.00
  L 799.00 764.00
  Q 801.15 733.52 801.20 716.69
  C 801.30 686.70 801.62 656.79 799.79 626.85
  Q 799.76 626.33 800.28 626.34
  Q 828.04 626.83 856.00 626.95
  Q 866.60 626.99 880.43 629.57
  C 905.56 634.26 923.82 655.31 926.81 680.45
  C 932.19 725.74 907.95 759.07 861.67 764.00
  Z
  M 823.93 754.07
  C 838.80 755.79 857.24 755.98 870.95 751.31
  C 900.86 741.14 908.69 708.32 903.98 679.77
  C 896.73 635.79 857.54 634.00 821.98 636.88
  A 0.90 0.89 88.9 0 0 821.16 637.74
  Q 819.43 695.25 820.79 752.77
  Q 820.82 754.17 822.21 754.01
  Q 822.80 753.94 823.93 754.07
  Z"
/>
<path d="
  M 475.73 764.00
  L 470.96 764.00
  C 453.57 762.02 434.30 763.16 415.68 764.00
  L 401.92 764.00
  C 405.59 718.87 404.59 672.29 402.58 627.11
  A 0.24 0.24 0.0 0 1 402.84 626.86
  Q 438.56 629.25 474.28 626.94
  A 0.23 0.22 5.4 0 1 474.52 627.22
  Q 472.95 633.47 474.40 639.74
  Q 474.52 640.23 474.02 640.16
  Q 449.26 636.39 424.24 638.30
  A 0.99 0.98 -2.2 0 0 423.33 639.28
  L 423.21 685.97
  A 0.65 0.65 0.0 0 0 423.84 686.62
  Q 446.83 687.38 469.74 685.37
  A 0.50 0.50 0.0 0 1 470.27 685.99
  Q 468.80 691.73 470.28 697.45
  Q 470.53 698.43 469.53 698.31
  Q 446.83 695.59 424.00 696.84
  A 0.69 0.69 0.0 0 0 423.35 697.51
  Q 422.54 725.27 423.59 753.03
  Q 423.61 753.45 424.03 753.46
  Q 449.66 753.58 475.16 751.07
  A 0.56 0.56 0.0 0 1 475.76 751.75
  Q 474.41 758.07 475.73 764.00
  Z"
/>
<path d="
  M 579.68 764.00
  L 566.96 764.00
  Q 539.41 762.35 511.92 764.00
  L 503.52 764.00
  C 505.93 718.36 505.50 672.88 503.70 627.22
  Q 503.68 626.62 504.27 626.73
  Q 515.35 628.87 526.42 626.64
  A 0.54 0.54 0.0 0 1 527.07 627.19
  Q 524.90 689.55 525.31 751.96
  A 0.85 0.85 0.0 0 0 526.12 752.81
  Q 552.76 754.24 579.23 750.98
  Q 579.78 750.91 579.67 751.45
  Q 578.39 757.71 579.68 764.00
  Z"
/>
<path d="
  M 761.59 764.00
  L 757.99 764.00
  Q 749.61 762.41 741.40 764.00
  L 738.57 764.00
  C 741.56 719.11 741.08 673.71 739.18 627.27
  Q 739.15 626.64 739.77 626.76
  Q 750.48 628.89 761.19 626.75
  Q 761.79 626.63 761.76 627.24
  Q 758.79 695.64 761.59 764.00
  Z"
/>
<path d="
  M 1027.80 764.00
  L 1022.96 764.00
  C 1005.57 762.02 986.30 763.16 967.68 764.00
  L 954.24 764.00
  Q 958.07 695.67 954.57 627.31
  Q 954.55 626.85 955.01 626.88
  Q 990.52 629.22 1026.02 626.98
  Q 1026.69 626.94 1026.53 627.59
  Q 1025.02 633.64 1026.50 639.68
  Q 1026.63 640.23 1026.07 640.15
  Q 1001.34 636.40 976.36 638.29
  A 1.10 1.09 -2.3 0 0 975.35 639.38
  L 975.30 685.91
  Q 975.30 686.61 975.99 686.63
  Q 998.86 687.35 1021.65 685.39
  Q 1022.30 685.34 1022.23 685.98
  Q 1021.94 688.49 1021.67 690.87
  C 1021.41 693.20 1022.21 695.31 1022.25 697.72
  Q 1022.26 698.37 1021.61 698.29
  Q 998.81 695.57 975.87 696.86
  Q 975.56 696.87 975.54 697.19
  C 974.88 715.64 974.74 734.35 975.75 752.79
  Q 975.79 753.46 976.47 753.47
  Q 1002.06 753.55 1027.51 751.05
  A 0.33 0.32 1.9 0 1 1027.87 751.42
  Q 1026.71 758.20 1027.80 764.00
  Z"
/>
<path d="
  M 43.62 764.00
  L 35.78 764.00
  Q 26.45 760.23 32.07 752.25
  A 2.26 2.25 -50.2 0 1 35.49 751.93
  C 41.59 757.92 48.68 761.57 52.59 750.85
  Q 56.06 741.35 58.39 731.53
  Q 64.14 707.30 70.64 683.26
  A 0.40 0.40 0.0 0 0 70.25 682.75
  L 60.47 682.75
  A 0.83 0.82 -8.6 0 1 59.68 682.17
  Q 59.00 679.94 60.45 678.14
  Q 60.76 677.75 61.27 677.75
  L 71.74 677.75
  A 0.63 0.62 8.0 0 0 72.34 677.30
  C 77.22 660.73 85.75 637.76 106.24 635.78
  C 116.03 634.84 123.39 646.06 113.46 651.76
  A 2.07 2.06 -16.3 0 1 110.37 650.07
  C 109.94 641.17 103.52 637.14 96.71 643.95
  C 89.33 651.33 84.79 666.38 82.10 676.89
  Q 81.88 677.75 82.78 677.75
  L 97.74 677.75
  A 0.70 0.69 -6.2 0 1 98.42 678.29
  Q 98.92 680.58 97.39 682.27
  Q 96.96 682.75 96.32 682.75
  L 81.23 682.75
  A 0.99 0.98 7.1 0 0 80.27 683.49
  Q 72.99 711.00 64.88 738.42
  C 61.51 749.82 56.34 760.43 43.62 764.00
  Z"
/>
</g>
<g stroke-width="2.00" fill="none" stroke-linecap="butt">
<path stroke="#d9c483" vector-effect="non-scaling-stroke" d="
  M 513.48 141.74
  L 513.28 158.68"
/>
<path stroke="#5a4404" vector-effect="non-scaling-stroke" d="
  M 513.28 158.68
  Q 506.15 155.15 500.48 153.81
  C 489.72 151.25 477.70 152.86 466.27 150.49
  C 461.26 149.45 455.75 147.22 450.57 145.34
  Q 450.00 145.14 450.00 145.74
  L 450.00 155.25
  Q 450.00 155.75 449.50 155.75
  L 439.00 155.75
  Q 438.50 155.75 438.50 156.25
  L 438.50 166.25
  A 0.50 0.50 0.0 0 1 438.00 166.75
  L 427.49 166.75
  Q 426.94 166.75 426.93 167.30
  L 426.73 178.99"
/>
<path stroke="#d0521b" vector-effect="non-scaling-stroke" d="
  M 426.73 178.99
  L 426.56 189.07
  Q 426.55 189.33 426.32 189.20
  Q 426.19 189.12 426.19 188.93
  Q 426.19 184.29 426.25 179.54
  Q 426.26 178.99 425.71 178.99
  L 421.40 179.01
  A 0.65 0.65 0.0 0 0 420.75 179.66
  L 420.75 193.20
  A 0.72 0.72 0.0 0 1 419.81 193.89
  L 419.32 193.74
  A 0.55 0.55 0.0 0 0 418.60 194.35
  Q 419.50 199.80 418.50 205.18
  Q 418.44 205.52 418.76 205.64
  L 420.20 206.20
  Q 420.75 206.41 420.75 206.99
  L 420.75 247.30
  Q 420.75 247.86 420.19 247.94
  L 419.24 248.07
  Q 418.70 248.14 418.70 248.68
  L 418.61 259.58
  A 0.42 0.41 83.9 0 0 419.11 259.99
  Q 420.12 259.77 420.56 261.04
  Q 420.69 261.39 420.69 261.77
  L 421.06 284.66
  A 0.86 0.85 89.3 0 0 421.91 285.50
  L 497.02 285.50
  A 1.44 1.43 76.5 0 1 498.30 286.29
  Q 502.69 295.10 513.48 296.14"
/>
<path stroke="#d9c483" vector-effect="non-scaling-stroke" d="
  M 513.48 296.14
  L 513.37 354.83"
/>
<path stroke="#f68d97" vector-effect="non-scaling-stroke" d="
  M 513.48 296.14
  Q 523.72 295.63 528.59 286.40
  Q 528.80 286.00 529.26 286.00
  L 605.34 286.00
  A 0.66 0.65 -0.0 0 0 606.00 285.35
  L 606.00 261.25
  Q 606.00 260.75 606.50 260.75
  L 608.12 260.75
  Q 608.75 260.75 608.75 260.12
  L 608.75 248.37
  Q 608.75 247.75 608.12 247.75
  L 606.97 247.75
  Q 605.94 247.75 605.95 246.72
  L 606.14 207.43
  Q 606.15 206.25 607.32 206.25
  L 607.91 206.25
  Q 608.57 206.25 608.58 205.59
  L 608.69 193.96
  A 0.71 0.70 86.1 0 0 607.89 193.26
  L 606.98 193.38
  A 0.86 0.86 0.0 0 1 606.00 192.53
  L 606.00 179.45
  Q 606.00 178.79 605.34 178.79
  L 599.54 178.80"
/>
<path stroke="#808080" vector-effect="non-scaling-stroke" d="
  M 599.54 178.80
  L 599.88 167.11
  Q 599.90 166.49 599.28 166.49
  L 589.25 166.50
  Q 588.25 166.50 588.25 165.50
  L 588.25 156.03
  Q 588.25 155.49 587.72 155.49
  L 577.00 155.50
  Q 576.50 155.50 576.50 155.00
  L 576.50 145.06
  Q 576.50 144.56 576.03 144.74
  Q 571.60 146.39 567.13 147.98
  C 549.07 154.41 530.58 148.03 513.28 158.68"
/>
<path stroke="#770e17" vector-effect="non-scaling-stroke" d="
  M 599.54 178.80
  L 599.51 278.89
  A 1.34 1.34 0.0 0 1 598.17 280.23
  L 523.24 280.26
  A 1.54 1.54 0.0 0 0 521.73 281.49
  C 519.39 292.88 505.67 292.35 503.56 280.74
  Q 503.47 280.25 502.97 280.25
  L 427.50 280.25
  A 0.76 0.76 0.0 0 1 426.74 279.49
  L 426.73 178.99"
/>
</g>
<g fill="#000000">
<path d="
  M 599.54 178.80
  L 599.51 278.89
  A 1.34 1.34 0.0 0 1 598.17 280.23
  L 523.24 280.26
  A 1.54 1.54 0.0 0 0 521.73 281.49
  C 519.39 292.88 505.67 292.35 503.56 280.74
  Q 503.47 280.25 502.97 280.25
  L 427.50 280.25
  A 0.76 0.76 0.0 0 1 426.74 279.49
  L 426.73 178.99
  L 426.93 167.30
  Q 426.94 166.75 427.49 166.75
  L 438.00 166.75
  A 0.50 0.50 0.0 0 0 438.50 166.25
  L 438.50 156.25
  Q 438.50 155.75 439.00 155.75
  L 449.50 155.75
  Q 450.00 155.75 450.00 155.25
  L 450.00 145.74
  Q 450.00 145.14 450.57 145.34
  C 455.75 147.22 461.26 149.45 466.27 150.49
  C 477.70 152.86 489.72 151.25 500.48 153.81
  Q 506.15 155.15 513.28 158.68
  C 530.58 148.03 549.07 154.41 567.13 147.98
  Q 571.60 146.39 576.03 144.74
  Q 576.50 144.56 576.50 145.06
  L 576.50 155.00
  Q 576.50 155.50 577.00 155.50
  L 587.72 155.49
  Q 588.25 155.49 588.25 156.03
  L 588.25 165.50
  Q 588.25 166.50 589.25 166.50
  L 599.28 166.49
  Q 599.90 166.49 599.88 167.11
  L 599.54 178.80
  Z"
/>
<path d="
  M 465.87 546.69
  Q 466.44 547.24 466.45 546.45
  Q 466.88 514.57 465.66 482.71
  A 0.48 0.47 -81.4 0 1 466.29 482.24
  Q 470.76 483.84 475.23 482.23
  A 0.54 0.54 0.0 0 1 475.95 482.79
  C 473.46 512.49 473.80 538.38 474.26 572.20
  Q 474.26 572.64 473.85 572.80
  Q 471.65 573.67 470.68 572.56
  Q 440.82 538.37 409.18 505.37
  A 0.29 0.29 0.0 0 0 408.68 505.57
  Q 407.94 538.40 409.47 571.22
  Q 409.50 571.79 408.95 571.61
  Q 403.99 569.94 399.01 571.71
  Q 398.47 571.90 398.52 571.33
  Q 402.34 526.56 400.75 481.64
  Q 400.73 481.18 401.16 480.97
  Q 403.47 479.88 404.86 481.40
  Q 430.31 509.30 456.16 536.84
  Q 461.08 542.08 465.87 546.69
  Z"
/>
<path d="
  M 784.62 522.89
  C 776.43 515.76 775.52 502.50 780.63 493.48
  C 788.79 479.12 813.18 476.54 825.35 487.17
  Q 825.75 487.51 825.50 487.98
  Q 823.08 492.70 822.29 498.04
  A 2.02 2.02 0.0 0 1 818.37 498.38
  Q 814.47 486.56 802.90 487.58
  C 790.10 488.70 784.62 503.68 793.56 512.53
  Q 795.89 514.83 804.82 518.68
  C 817.12 523.99 829.63 528.40 829.02 544.24
  C 827.98 571.48 794.53 581.88 775.52 565.48
  Q 775.14 565.15 775.33 564.68
  Q 777.33 559.69 777.60 554.18
  A 1.96 1.96 0.0 0 1 781.35 553.47
  C 786.89 565.79 804.75 571.14 813.96 559.15
  C 819.26 552.24 818.26 541.22 810.41 536.34
  C 801.77 530.98 791.87 529.20 784.62 522.89
  Z"
/>
<path d="
  M 97.26 527.88
  L 98.38 571.12
  Q 98.39 571.66 97.87 571.53
  Q 91.47 570.02 85.06 571.49
  A 0.68 0.67 84.5 0 1 84.23 570.80
  Q 86.42 526.89 84.23 482.98
  Q 84.19 482.21 84.95 482.36
  Q 91.40 483.65 97.84 482.39
  A 0.52 0.52 0.0 0 1 98.46 482.92
  L 97.30 518.90
  Q 97.29 519.42 97.81 519.44
  Q 122.62 520.32 147.43 519.45
  Q 148.49 519.42 148.46 518.35
  L 147.41 482.65
  Q 147.39 482.16 147.87 482.27
  Q 154.51 483.79 161.15 482.27
  Q 161.70 482.14 161.67 482.71
  Q 159.30 526.85 161.67 570.99
  A 0.54 0.54 0.0 0 1 161.00 571.55
  Q 154.62 570.01 148.23 571.54
  A 0.81 0.80 84.9 0 1 147.24 570.71
  Q 148.54 549.24 148.21 527.72
  A 0.48 0.47 0.0 0 0 147.73 527.25
  L 97.88 527.25
  Q 97.24 527.25 97.26 527.88
  Z"
/>
<path d="
  M 317.81 571.20
  C 298.31 566.11 295.48 547.30 296.23 530.40
  Q 297.25 507.67 295.85 483.66
  Q 295.76 482.12 297.27 482.43
  Q 303.40 483.72 309.43 482.25
  A 0.35 0.35 0.0 0 1 309.87 482.62
  Q 307.90 509.09 308.55 535.75
  C 308.83 547.10 311.91 559.51 324.00 563.47
  C 340.50 568.87 357.26 563.04 360.56 544.39
  Q 362.35 534.29 362.40 526.49
  Q 362.54 504.63 361.45 482.76
  Q 361.42 482.03 362.11 482.25
  Q 366.98 483.79 371.82 482.25
  Q 372.34 482.08 372.30 482.62
  Q 370.65 505.73 369.98 537.99
  C 369.37 567.65 343.07 577.78 317.81 571.20
  Z"
/>
<path d="
  M 515.33 571.47
  C 510.12 571.05 507.21 570.48 502.25 571.55
  A 0.55 0.55 0.0 0 1 501.59 570.98
  Q 503.61 526.88 501.59 482.77
  A 0.51 0.51 0.0 0 1 502.22 482.25
  Q 508.76 483.84 515.29 482.25
  A 0.53 0.53 0.0 0 1 515.94 482.79
  Q 513.58 526.84 515.92 570.90
  Q 515.96 571.52 515.33 571.47
  Z"
/>
<path d="
  M 731.34 528.73
  L 765.60 571.45
  Q 765.98 571.93 765.39 571.80
  Q 757.10 569.97 748.76 571.49
  A 0.82 0.81 67.8 0 1 747.93 571.14
  Q 732.54 548.25 716.74 530.52
  Q 715.04 528.61 712.48 529.77
  Q 712.03 529.97 712.05 530.46
  L 713.19 571.08
  Q 713.21 571.67 712.64 571.54
  Q 706.17 570.03 699.73 571.57
  A 0.60 0.60 0.0 0 1 698.99 570.96
  Q 701.16 526.98 699.00 483.00
  A 0.62 0.62 0.0 0 1 699.68 482.35
  Q 711.23 483.54 723.18 482.58
  C 736.00 481.54 752.80 483.53 755.58 499.30
  C 758.41 515.42 745.60 524.84 731.57 528.06
  A 0.42 0.42 0.0 0 0 731.34 528.73
  Z
  M 713.05 522.56
  C 724.92 524.19 740.94 521.23 742.74 507.08
  C 745.07 488.80 726.05 487.71 713.49 489.69
  Q 712.93 489.78 712.92 490.33
  L 712.11 521.45
  A 1.09 1.08 -85.3 0 0 713.05 522.56
  Z"
/>
<path d="
  M 862.73 571.46
  C 857.82 571.04 854.81 570.35 850.22 571.51
  Q 848.95 571.83 849.01 570.52
  Q 851.16 526.74 849.00 482.96
  A 0.65 0.65 0.0 0 1 849.79 482.30
  Q 856.03 483.75 862.30 482.35
  A 0.85 0.84 85.2 0 1 863.33 483.23
  Q 861.07 527.05 863.34 570.87
  Q 863.38 571.52 862.73 571.46
  Z"
/>
<path d="
  M 201.25 563.45
  Q 218.00 563.95 234.63 561.91
  Q 235.17 561.84 235.04 562.37
  Q 234.01 566.64 235.05 570.92
  Q 235.20 571.53 234.57 571.49
  Q 211.17 570.02 187.78 571.50
  A 0.45 0.44 89.4 0 1 187.31 571.03
  Q 189.37 527.05 187.33 483.06
  A 0.62 0.61 -89.6 0 1 187.98 482.41
  Q 210.99 483.66 233.99 482.41
  A 0.46 0.46 0.0 0 1 234.46 482.98
  Q 233.44 487.20 234.45 491.39
  A 0.39 0.38 -5.0 0 1 234.05 491.86
  L 201.97 489.99
  Q 200.86 489.92 200.85 491.04
  L 200.63 520.21
  Q 200.63 521.30 201.72 521.25
  L 231.11 519.91
  Q 231.63 519.88 231.51 520.39
  Q 230.53 524.60 231.49 528.80
  A 0.38 0.37 84.7 0 1 231.11 529.26
  L 201.60 528.07
  Q 200.91 528.04 200.86 528.72
  C 200.09 537.85 200.56 547.74 200.82 563.02
  Q 200.83 563.44 201.25 563.45
  Z"
/>
<path d="
  M 644.25 528.65
  L 644.25 562.47
  A 0.95 0.95 0.0 0 0 645.17 563.42
  Q 661.74 563.97 678.18 561.87
  Q 678.83 561.79 678.68 562.42
  Q 677.72 566.59 678.61 570.80
  Q 678.77 571.54 678.02 571.49
  Q 654.68 570.03 631.33 571.49
  Q 630.84 571.52 630.87 571.04
  C 632.40 541.53 632.00 512.44 630.97 482.95
  A 0.51 0.51 0.0 0 1 631.51 482.42
  Q 654.39 483.64 677.27 482.43
  A 0.70 0.70 0.0 0 1 677.98 483.31
  Q 676.95 487.20 677.97 491.08
  A 0.60 0.59 83.9 0 1 677.37 491.83
  L 645.65 490.00
  Q 644.47 489.93 644.46 491.11
  L 644.16 520.59
  Q 644.16 521.28 644.85 521.25
  L 674.62 519.94
  A 0.41 0.41 0.0 0 1 675.04 520.44
  Q 674.12 524.68 675.04 528.94
  Q 675.12 529.28 674.77 529.26
  L 644.85 528.08
  Q 644.25 528.05 644.25 528.65
  Z"
/>
<path d="
  M 906.55 490.98
  Q 893.44 490.95 880.40 492.43
  A 0.42 0.42 0.0 0 1 879.96 491.87
  Q 881.57 487.47 879.98 483.06
  A 0.49 0.49 0.0 0 1 880.45 482.40
  Q 913.50 483.65 946.54 482.42
  Q 947.66 482.38 947.29 483.43
  Q 945.80 487.71 947.50 491.89
  Q 947.74 492.50 947.09 492.43
  Q 934.21 490.96 921.26 490.99
  Q 920.25 490.99 920.22 492.00
  Q 918.95 531.53 920.84 571.03
  A 0.52 0.52 0.0 0 1 920.20 571.56
  Q 913.73 570.02 907.25 571.55
  A 0.54 0.54 0.0 0 1 906.58 571.00
  C 907.71 544.49 907.19 518.24 907.24 491.68
  Q 907.24 490.98 906.55 490.98
  Z"
/>
<path d="
  M 575.06 556.73
  A 0.56 0.40 37.4 0 0 576.03 556.76
  Q 576.00 556.62 576.00 556.50
  Q 576.00 556.18 576.07 556.03
  Q 591.32 520.46 603.72 483.80
  Q 603.91 483.23 604.50 483.38
  Q 608.67 484.40 612.85 483.42
  Q 613.57 483.24 613.27 483.92
  Q 594.02 526.49 577.29 570.10
  Q 577.08 570.63 576.54 570.48
  Q 572.86 569.47 569.18 570.47
  Q 568.66 570.61 568.47 570.11
  Q 551.75 526.73 533.48 483.98
  A 0.48 0.48 0.0 0 1 534.02 483.32
  Q 540.02 484.51 546.02 483.31
  Q 546.58 483.19 546.77 483.73
  Q 559.79 520.66 575.06 556.73
  Z"
/>
<path d="
  M 1026.50 598.18
  A 0.57 0.57 0.0 0 1 1025.93 598.75
  L 1.33 598.75
  A 0.57 0.57 0.0 0 1 0.76 598.18
  L 0.76 597.08
  A 0.57 0.57 0.0 0 1 1.33 596.51
  L 1025.93 596.51
  A 0.57 0.57 0.0 0 1 1026.50 597.08
  L 1026.50 598.18
  Z"
/>
<path d="
  M 8.69 728.56
  C 0.30 722.91 3.82 708.55 6.73 700.90
  C 10.91 689.87 22.98 675.33 35.76 675.76
  C 47.87 676.17 50.76 686.51 48.71 696.63
  C 46.08 709.61 37.81 723.57 25.39 729.35
  Q 16.19 733.62 8.69 728.56
  Z
  M 18.13 726.93
  C 29.17 727.30 37.80 699.92 39.54 691.70
  C 40.54 686.97 40.20 677.58 32.43 680.43
  C 21.72 684.37 14.03 708.65 12.44 718.73
  C 11.86 722.47 13.88 726.79 18.13 726.93
  Z"
/>
</g>
<path fill="#ffffff" d="
  M 513.48 141.74
  L 651.79 141.92
  A 0.69 0.69 0.0 0 1 652.48 142.61
  C 652.54 213.50 626.80 278.15 570.04 321.79
  Q 545.31 340.81 513.37 354.83
  L 513.48 296.14
  Q 523.72 295.63 528.59 286.40
  Q 528.80 286.00 529.26 286.00
  L 605.34 286.00
  A 0.66 0.65 -0.0 0 0 606.00 285.35
  L 606.00 261.25
  Q 606.00 260.75 606.50 260.75
  L 608.12 260.75
  Q 608.75 260.75 608.75 260.12
  L 608.75 248.37
  Q 608.75 247.75 608.12 247.75
  L 606.97 247.75
  Q 605.94 247.75 605.95 246.72
  L 606.14 207.43
  Q 606.15 206.25 607.32 206.25
  L 607.91 206.25
  Q 608.57 206.25 608.58 205.59
  L 608.69 193.96
  A 0.71 0.70 86.1 0 0 607.89 193.26
  L 606.98 193.38
  A 0.86 0.86 0.0 0 1 606.00 192.53
  L 606.00 179.45
  Q 606.00 178.79 605.34 178.79
  L 599.54 178.80
  L 599.88 167.11
  Q 599.90 166.49 599.28 166.49
  L 589.25 166.50
  Q 588.25 166.50 588.25 165.50
  L 588.25 156.03
  Q 588.25 155.49 587.72 155.49
  L 577.00 155.50
  Q 576.50 155.50 576.50 155.00
  L 576.50 145.06
  Q 576.50 144.56 576.03 144.74
  Q 571.60 146.39 567.13 147.98
  C 549.07 154.41 530.58 148.03 513.28 158.68
  L 513.48 141.74
  Z"
/>
<g fill="#ed1b2e">
<path d="
  M 599.54 178.80
  L 605.34 178.79
  Q 606.00 178.79 606.00 179.45
  L 606.00 192.53
  A 0.86 0.86 0.0 0 0 606.98 193.38
  L 607.89 193.26
  A 0.71 0.70 86.1 0 1 608.69 193.96
  L 608.58 205.59
  Q 608.57 206.25 607.91 206.25
  L 607.32 206.25
  Q 606.15 206.25 606.14 207.43
  L 605.95 246.72
  Q 605.94 247.75 606.97 247.75
  L 608.12 247.75
  Q 608.75 247.75 608.75 248.37
  L 608.75 260.12
  Q 608.75 260.75 608.12 260.75
  L 606.50 260.75
  Q 606.00 260.75 606.00 261.25
  L 606.00 285.35
  A 0.66 0.65 -0.0 0 1 605.34 286.00
  L 529.26 286.00
  Q 528.80 286.00 528.59 286.40
  Q 523.72 295.63 513.48 296.14
  Q 502.69 295.10 498.30 286.29
  A 1.44 1.43 76.5 0 0 497.02 285.50
  L 421.91 285.50
  A 0.86 0.85 89.3 0 1 421.06 284.66
  L 420.69 261.77
  Q 420.69 261.39 420.56 261.04
  Q 420.12 259.77 419.11 259.99
  A 0.42 0.41 83.9 0 1 418.61 259.58
  L 418.70 248.68
  Q 418.70 248.14 419.24 248.07
  L 420.19 247.94
  Q 420.75 247.86 420.75 247.30
  L 420.75 206.99
  Q 420.75 206.41 420.20 206.20
  L 418.76 205.64
  Q 418.44 205.52 418.50 205.18
  Q 419.50 199.80 418.60 194.35
  A 0.55 0.55 0.0 0 1 419.32 193.74
  L 419.81 193.89
  A 0.72 0.72 0.0 0 0 420.75 193.20
  L 420.75 179.66
  A 0.65 0.65 0.0 0 1 421.40 179.01
  L 425.71 178.99
  Q 426.26 178.99 426.25 179.54
  Q 426.19 184.29 426.19 188.93
  Q 426.19 189.12 426.32 189.20
  Q 426.55 189.33 426.56 189.07
  L 426.73 178.99
  L 426.74 279.49
  A 0.76 0.76 0.0 0 0 427.50 280.25
  L 502.97 280.25
  Q 503.47 280.25 503.56 280.74
  C 505.67 292.35 519.39 292.88 521.73 281.49
  A 1.54 1.54 0.0 0 1 523.24 280.26
  L 598.17 280.23
  A 1.34 1.34 0.0 0 0 599.51 278.89
  L 599.54 178.80
  Z"
/>
<path d="
  M 626.65 358.61
  Q 627.23 358.35 626.97 357.77
  L 614.61 330.17
  A 0.66 0.66 0.0 0 1 614.78 329.40
  C 637.83 309.45 668.78 297.91 698.27 291.87
  Q 698.75 291.77 698.75 292.26
  L 698.75 337.24
  A 0.61 0.60 -9.5 0 1 698.34 337.81
  C 684.62 342.27 672.35 346.67 661.75 355.73
  Q 661.39 356.03 661.60 356.45
  L 675.50 384.25
  Q 675.72 384.69 675.35 385.01
  C 649.50 407.10 614.08 418.83 580.93 424.85
  Q 513.28 437.14 446.26 423.98
  C 414.44 417.73 382.40 406.06 356.89 385.26
  A 1.14 1.13 33.1 0 1 356.59 383.87
  L 370.44 356.68
  A 0.87 0.87 0.0 0 0 370.22 355.62
  C 359.74 346.84 346.71 342.00 333.89 337.89
  A 0.93 0.92 9.1 0 1 333.25 337.01
  L 333.25 292.08
  A 0.28 0.28 0.0 0 1 333.59 291.81
  C 362.98 297.85 392.61 309.07 416.11 328.30
  A 1.52 1.51 -58.8 0 1 416.54 330.07
  L 404.71 357.50
  Q 404.47 358.06 405.02 358.32
  C 453.11 381.08 510.68 384.46 562.68 377.33
  Q 596.09 372.75 626.65 358.61
  Z"
/>
</g>
<path fill="#005a9c" d="
  M 652.49 134.38
  A 0.37 0.37 0.0 0 1 652.12 134.75
  L 374.62 134.75
  A 0.37 0.37 0.0 0 1 374.25 134.38
  L 374.25 13.90
  A 0.37 0.37 0.0 0 1 374.62 13.53
  L 652.12 13.53
  A 0.37 0.37 0.0 0 1 652.49 13.90
  L 652.49 134.38
  Z"
/>
<path fill="#b38807" d="
  M 513.48 141.74
  L 513.28 158.68
  Q 506.15 155.15 500.48 153.81
  C 489.72 151.25 477.70 152.86 466.27 150.49
  C 461.26 149.45 455.75 147.22 450.57 145.34
  Q 450.00 145.14 450.00 145.74
  L 450.00 155.25
  Q 450.00 155.75 449.50 155.75
  L 439.00 155.75
  Q 438.50 155.75 438.50 156.25
  L 438.50 166.25
  A 0.50 0.50 0.0 0 1 438.00 166.75
  L 427.49 166.75
  Q 426.94 166.75 426.93 167.30
  L 426.73 178.99
  L 426.56 189.07
  Q 426.55 189.33 426.32 189.20
  Q 426.19 189.12 426.19 188.93
  Q 426.19 184.29 426.25 179.54
  Q 426.26 178.99 425.71 178.99
  L 421.40 179.01
  A 0.65 0.65 0.0 0 0 420.75 179.66
  L 420.75 193.20
  A 0.72 0.72 0.0 0 1 419.81 193.89
  L 419.32 193.74
  A 0.55 0.55 0.0 0 0 418.60 194.35
  Q 419.50 199.80 418.50 205.18
  Q 418.44 205.52 418.76 205.64
  L 420.20 206.20
  Q 420.75 206.41 420.75 206.99
  L 420.75 247.30
  Q 420.75 247.86 420.19 247.94
  L 419.24 248.07
  Q 418.70 248.14 418.70 248.68
  L 418.61 259.58
  A 0.42 0.41 83.9 0 0 419.11 259.99
  Q 420.12 259.77 420.56 261.04
  Q 420.69 261.39 420.69 261.77
  L 421.06 284.66
  A 0.86 0.85 89.3 0 0 421.91 285.50
  L 497.02 285.50
  A 1.44 1.43 76.5 0 1 498.30 286.29
  Q 502.69 295.10 513.48 296.14
  L 513.37 354.83
  Q 495.23 347.64 475.93 335.59
  C 406.14 292.05 373.80 223.02 373.95 142.16
  A 0.61 0.61 0.0 0 1 374.56 141.55
  L 513.48 141.74
  Z"
/>
<g fill="#ffffff">
<path d="
  M 502.54 50.71
  L 493.20 46.64
  A 0.34 0.34 0.0 0 1 493.08 46.10
  L 499.72 38.65
  A 0.34 0.34 0.0 0 0 499.79 38.33
  L 496.93 29.04
  A 0.34 0.34 0.0 0 1 497.27 28.60
  L 507.47 29.07
  A 0.34 0.34 0.0 0 0 507.76 28.94
  L 513.77 20.97
  A 0.34 0.34 0.0 0 1 514.31 20.97
  L 520.29 28.97
  A 0.34 0.34 0.0 0 0 520.58 29.10
  L 530.79 28.66
  A 0.34 0.34 0.0 0 1 531.13 29.10
  L 528.25 38.50
  A 0.34 0.34 0.0 0 0 528.32 38.82
  L 535.07 46.32
  A 0.34 0.34 0.0 0 1 534.93 46.87
  L 525.42 50.46
  A 0.34 0.34 0.0 0 0 525.21 50.72
  L 523.44 60.51
  A 0.34 0.34 0.0 0 1 522.95 60.75
  L 514.22 56.05
  A 0.34 0.34 0.0 0 0 513.90 56.05
  L 504.72 60.64
  A 0.34 0.34 0.0 0 1 504.23 60.39
  L 502.74 50.96
  A 0.34 0.34 0.0 0 0 502.54 50.71
  Z"
/>
<path d="
  M 586.33 64.97
  L 592.89 72.29
  A 0.49 0.49 0.0 0 1 592.70 73.08
  L 583.43 76.65
  A 0.49 0.49 0.0 0 0 583.12 77.02
  L 581.42 86.43
  A 0.49 0.49 0.0 0 1 580.71 86.77
  L 572.23 82.24
  A 0.49 0.49 0.0 0 0 571.78 82.23
  L 562.88 86.68
  A 0.49 0.49 0.0 0 1 562.18 86.33
  L 560.63 77.08
  A 0.49 0.49 0.0 0 0 560.34 76.71
  L 551.24 72.89
  A 0.49 0.49 0.0 0 1 551.06 72.11
  L 557.55 64.89
  A 0.49 0.49 0.0 0 0 557.65 64.43
  L 554.97 55.39
  A 0.49 0.49 0.0 0 1 555.46 54.76
  L 565.40 55.08
  A 0.49 0.49 0.0 0 0 565.80 54.89
  L 571.60 47.21
  A 0.49 0.49 0.0 0 1 572.39 47.21
  L 578.25 55.21
  A 0.49 0.49 0.0 0 0 578.68 55.41
  L 588.51 54.69
  A 0.49 0.49 0.0 0 1 589.01 55.32
  L 586.23 64.50
  A 0.49 0.49 0.0 0 0 586.33 64.97
  Z"
/>
<path d="
  M 489.57 96.67
  Q 489.69 96.76 489.78 96.88
  A 0.80 0.79 -40.9 0 1 489.70 97.92
  L 483.03 104.59
  A 0.97 0.95 67.8 0 0 482.75 105.27
  L 482.75 115.00
  A 0.75 0.75 0.0 0 1 482.00 115.75
  L 471.93 115.75
  Q 471.39 115.75 471.01 116.12
  L 463.54 123.25
  Q 463.05 123.72 462.55 123.25
  L 455.40 116.36
  A 2.20 2.20 0.0 0 0 453.87 115.74
  L 444.25 115.75
  Q 443.75 115.75 443.75 115.25
  L 443.75 105.50
  A 0.99 0.99 0.0 0 0 443.46 104.80
  L 436.59 97.98
  A 0.93 0.92 45.4 0 1 436.59 96.66
  L 443.36 90.06
  Q 443.75 89.68 443.75 89.14
  L 443.75 79.25
  A 0.50 0.50 0.0 0 1 444.25 78.75
  L 454.72 78.75
  A 1.23 1.20 -67.0 0 0 455.58 78.39
  L 462.27 71.57
  Q 462.95 70.87 463.66 71.54
  L 470.91 78.47
  Q 471.20 78.75 471.60 78.75
  L 482.25 78.75
  A 0.50 0.50 0.0 0 1 482.75 79.25
  L 482.75 89.28
  Q 482.75 89.87 483.16 90.28
  Q 486.27 93.41 489.42 96.53
  Q 489.49 96.60 489.57 96.67
  Z"
/>
<path d="
  M 514.78 87.45
  L 519.41 94.14
  A 0.39 0.39 0.0 0 0 519.62 94.29
  L 527.58 96.57
  A 0.39 0.39 0.0 0 1 527.77 97.19
  L 522.69 103.54
  A 0.39 0.39 0.0 0 0 522.60 103.79
  L 522.81 111.67
  A 0.39 0.39 0.0 0 1 522.29 112.05
  L 514.58 109.34
  A 0.39 0.39 0.0 0 0 514.32 109.34
  L 506.52 112.10
  A 0.39 0.39 0.0 0 1 506.00 111.73
  L 506.00 103.59
  A 0.39 0.39 0.0 0 0 505.92 103.35
  L 501.12 97.17
  A 0.39 0.39 0.0 0 1 501.32 96.56
  L 509.19 94.21
  A 0.39 0.39 0.0 0 0 509.40 94.06
  L 514.14 87.44
  A 0.39 0.39 0.0 0 1 514.78 87.45
  Z"
/>
<path d="
  M 555.65 104.59
  L 564.46 104.57
  A 0.32 0.32 0.0 0 1 564.74 105.05
  L 560.31 112.67
  A 0.32 0.32 0.0 0 0 560.31 112.99
  L 564.74 120.61
  A 0.32 0.32 0.0 0 1 564.46 121.09
  L 555.65 121.07
  A 0.32 0.32 0.0 0 0 555.37 121.24
  L 550.98 128.88
  A 0.32 0.32 0.0 0 1 550.42 128.88
  L 546.03 121.24
  A 0.32 0.32 0.0 0 0 545.75 121.07
  L 536.94 121.09
  A 0.32 0.32 0.0 0 1 536.66 120.61
  L 541.09 112.99
  A 0.32 0.32 0.0 0 0 541.09 112.67
  L 536.66 105.05
  A 0.32 0.32 0.0 0 1 536.94 104.57
  L 545.75 104.59
  A 0.32 0.32 0.0 0 0 546.03 104.42
  L 550.42 96.78
  A 0.32 0.32 0.0 0 1 550.98 96.78
  L 555.37 104.42
  A 0.32 0.32 0.0 0 0 555.65 104.59
  Z"
/>
<path d="
  M 455.47 249.92
  L 455.56 153.72
  Q 455.56 152.96 456.27 153.22
  Q 468.26 157.58 476.49 157.46
  C 483.02 157.36 510.99 157.31 510.99 167.40
  Q 511.01 210.92 511.00 254.05
  Q 511.00 254.91 510.30 254.40
  C 501.95 248.32 494.58 247.60 483.59 248.66
  C 473.74 249.62 464.82 250.82 455.98 250.45
  Q 455.47 250.43 455.47 249.92
  Z"
/>
<path d="
  M 515.72 164.40
  C 523.33 157.41 536.21 157.84 547.51 157.56
  Q 558.30 157.29 569.94 153.34
  Q 570.50 153.15 570.50 153.74
  L 570.50 249.77
  Q 570.50 250.45 569.82 250.46
  C 561.57 250.68 553.56 249.79 543.27 248.74
  C 531.86 247.57 524.52 248.19 515.81 254.53
  Q 515.25 254.94 515.25 254.25
  L 515.25 165.48
  A 1.48 1.44 69.3 0 1 515.72 164.40
  Z"
/>
<path d="
  M 450.54 256.29
  Q 466.14 256.30 481.65 254.53
  C 494.14 253.09 502.95 254.06 510.87 264.02
  A 0.27 0.27 0.0 0 1 510.52 264.42
  Q 501.87 259.38 491.48 260.36
  C 475.70 261.84 462.44 263.50 444.56 262.84
  Q 444.00 262.82 444.00 262.26
  L 444.00 162.25
  Q 444.00 161.50 444.75 161.50
  L 449.50 161.50
  Q 450.00 161.50 450.00 162.00
  L 450.00 255.75
  Q 450.00 256.29 450.54 256.29
  Z"
/>
<path d="
  M 576.25 255.75
  L 576.25 162.00
  Q 576.25 161.50 576.75 161.50
  L 581.90 161.50
  Q 582.30 161.50 582.30 161.90
  L 582.58 262.44
  A 0.56 0.56 0.0 0 1 582.02 263.00
  C 573.37 263.01 564.83 263.20 556.12 262.40
  C 542.52 261.15 527.53 257.60 515.58 264.53
  A 0.29 0.29 0.0 0 1 515.21 264.10
  C 523.02 254.50 531.60 252.99 543.64 254.45
  Q 559.61 256.38 575.71 256.29
  Q 576.25 256.29 576.25 255.75
  Z"
/>
<path d="
  M 506.27 272.30
  C 490.10 270.46 473.58 274.52 457.32 274.51
  Q 445.07 274.51 432.75 274.49
  Q 432.25 274.49 432.25 274.00
  L 432.25 173.02
  Q 432.25 172.49 432.79 172.49
  L 437.79 172.51
  Q 438.33 172.51 438.33 173.04
  L 438.56 268.07
  Q 438.57 268.54 439.04 268.54
  C 450.09 268.47 461.35 268.89 472.25 267.95
  C 482.51 267.07 498.03 263.45 506.57 271.66
  A 0.37 0.37 0.0 0 1 506.27 272.30
  Z"
/>
<path d="
  M 587.60 268.59
  A 0.39 0.39 0.0 0 0 588.00 268.20
  L 588.00 173.06
  Q 588.00 172.45 588.62 172.46
  L 593.39 172.52
  Q 594.00 172.53 594.00 173.14
  L 594.00 273.99
  Q 594.00 274.49 593.51 274.49
  Q 581.62 274.52 569.79 274.51
  C 555.97 274.50 541.82 272.57 527.79 271.57
  C 524.92 271.37 522.39 271.81 519.73 272.55
  A 0.43 0.42 -71.4 0 1 519.36 271.80
  C 530.07 263.55 542.30 266.92 554.46 268.02
  C 565.36 269.00 576.59 268.37 587.60 268.59
  Z"
/>
<path d="
  M 643.29 378.74
  L 648.86 387.84
  Q 649.23 388.44 648.61 388.79
  L 645.40 390.57
  Q 644.83 390.88 644.51 390.33
  L 633.77 371.94
  A 0.56 0.56 0.0 0 1 633.98 371.17
  L 637.98 368.97
  Q 638.50 368.68 638.94 369.09
  L 647.50 376.95
  A 0.10 0.10 0.0 0 0 647.66 376.82
  L 641.72 367.41
  Q 641.40 366.89 641.93 366.58
  L 645.23 364.72
  Q 645.77 364.42 646.08 364.95
  L 656.76 383.26
  Q 657.06 383.77 656.55 384.08
  L 652.71 386.41
  Q 652.18 386.73 651.73 386.31
  L 643.46 378.60
  A 0.11 0.11 0.0 0 0 643.29 378.74
  Z"
/>
<path d="
  M 387.75 371.60
  A 1.20 1.20 0.0 0 0 385.61 371.44
  L 384.75 372.85
  A 0.78 0.77 46.0 0 0 384.74 373.64
  C 386.38 376.44 388.76 379.85 388.10 383.13
  C 385.76 394.73 368.91 387.49 375.74 378.13
  Q 376.06 377.68 376.55 377.94
  L 379.82 379.70
  A 0.56 0.55 24.5 0 1 380.08 380.38
  L 379.22 382.75
  A 1.51 1.51 0.0 0 0 381.83 384.20
  C 382.93 382.79 382.97 381.73 382.01 380.19
  C 379.40 375.97 377.81 370.20 383.00 367.27
  C 388.24 364.30 395.28 370.44 391.73 376.59
  Q 391.45 377.07 390.96 376.81
  L 387.54 374.98
  A 0.54 0.53 33.9 0 1 387.38 374.17
  Q 388.34 373.02 387.75 371.60
  Z"
/>
<path d="
  M 394.69 395.56
  C 391.75 393.08 392.69 389.65 394.10 386.15
  Q 396.62 379.92 399.19 373.70
  Q 399.37 373.25 399.82 373.43
  L 403.81 375.05
  Q 404.34 375.26 404.13 375.79
  L 398.16 390.97
  A 1.62 1.62 0.0 0 0 400.00 393.15
  Q 401.10 392.92 401.64 391.51
  Q 404.39 384.27 407.20 377.03
  Q 407.43 376.45 408.01 376.69
  L 412.06 378.40
  Q 412.57 378.62 412.37 379.13
  Q 409.62 385.99 406.79 392.77
  C 404.40 398.50 399.67 399.78 394.69 395.56
  Z"
/>
<path d="
  M 629.88 392.52
  L 635.28 390.13
  A 0.47 0.47 0.0 0 1 635.91 390.38
  L 637.43 393.99
  A 0.47 0.47 0.0 0 1 637.18 394.60
  L 626.68 399.01
  A 0.47 0.47 0.0 0 1 626.07 398.76
  L 617.71 378.94
  A 0.47 0.47 0.0 0 1 617.96 378.33
  L 628.38 373.88
  A 0.47 0.47 0.0 0 1 628.99 374.11
  L 630.57 377.46
  A 0.47 0.47 0.0 0 1 630.33 378.09
  L 624.70 380.45
  A 0.47 0.47 0.0 0 0 624.45 381.08
  L 625.60 383.69
  A 0.47 0.47 0.0 0 0 626.22 383.93
  L 631.23 381.82
  A 0.47 0.47 0.0 0 1 631.84 382.07
  L 633.33 385.54
  A 0.47 0.47 0.0 0 1 633.09 386.16
  L 628.13 388.28
  A 0.47 0.47 0.0 0 0 627.88 388.89
  L 629.26 392.27
  A 0.47 0.47 0.0 0 0 629.88 392.52
  Z"
/>
<path d="
  M 412.30 402.25
  Q 411.59 402.02 411.81 401.31
  L 417.92 380.93
  Q 418.06 380.48 418.51 380.62
  C 421.74 381.59 427.12 382.59 429.00 385.15
  C 430.84 387.67 429.88 391.78 426.88 393.31
  Q 426.35 393.58 426.63 394.11
  Q 429.06 398.65 425.58 402.63
  C 422.37 406.30 416.22 403.48 412.30 402.25
  Z"
/>
<path d="
  M 609.85 390.30
  L 610.90 402.79
  A 2.45 2.45 0.0 0 1 606.30 404.16
  L 600.51 393.32
  Q 599.65 391.71 600.21 393.45
  L 604.17 405.75
  Q 604.36 406.34 603.78 406.52
  L 600.10 407.67
  A 0.73 0.72 72.9 0 1 599.18 407.18
  L 593.14 386.84
  Q 592.98 386.29 593.53 386.14
  L 599.69 384.39
  A 0.83 0.82 68.3 0 1 600.63 384.80
  L 606.09 395.17
  Q 606.31 395.59 606.26 395.11
  L 605.21 383.30
  Q 605.16 382.72 605.71 382.55
  L 611.75 380.70
  Q 612.28 380.54 612.44 381.07
  L 618.59 401.50
  A 0.58 0.57 -17.0 0 1 618.21 402.21
  L 614.35 403.40
  Q 613.79 403.57 613.64 403.00
  L 610.21 390.24
  Q 609.67 388.24 609.85 390.30
  Z"
/>
<path d="
  M 590.60 403.48
  C 592.22 411.91 579.64 415.27 577.00 407.19
  Q 575.80 403.53 573.61 390.89
  Q 573.52 390.37 574.04 390.26
  L 578.16 389.39
  A 0.62 0.62 0.0 0 1 578.90 389.88
  C 579.63 393.68 580.83 404.10 582.88 406.78
  Q 583.17 407.16 583.65 407.14
  Q 585.69 407.03 585.28 405.00
  Q 583.69 397.14 582.27 389.25
  Q 582.17 388.69 582.72 388.56
  L 586.83 387.63
  Q 587.26 387.53 587.36 387.96
  Q 589.10 395.69 590.60 403.48
  Z"
/>
<path d="
  M 454.86 394.07
  A 1.65 1.65 0.0 0 0 451.97 394.60
  Q 450.21 400.44 449.72 406.46
  A 1.77 1.77 0.0 0 0 453.19 407.08
  L 454.06 403.97
  A 0.64 0.63 -76.6 0 1 454.79 403.52
  L 458.88 404.30
  Q 459.37 404.39 459.32 404.88
  C 458.12 416.08 443.83 413.84 444.39 405.25
  C 444.80 399.12 445.96 385.70 456.03 389.51
  Q 462.05 391.79 460.25 398.42
  Q 460.14 398.82 459.74 398.75
  L 455.73 398.05
  A 0.60 0.60 0.0 0 1 455.27 397.25
  Q 455.95 395.48 454.86 394.07
  Z"
/>
<path d="
  M 478.38 404.56
  L 479.87 406.86
  A 0.66 0.65 -55.5 0 1 479.96 407.36
  Q 479.04 411.38 479.85 415.35
  Q 479.97 415.91 479.40 415.84
  L 474.27 415.24
  A 0.68 0.67 6.1 0 1 473.68 414.51
  L 474.39 407.59
  Q 474.45 407.02 473.93 406.76
  L 472.31 405.97
  Q 471.46 405.55 471.35 406.49
  L 470.41 414.35
  Q 470.35 414.81 469.89 414.75
  L 465.57 414.19
  Q 465.02 414.12 465.09 413.58
  L 467.56 392.50
  Q 467.62 392.03 468.09 392.04
  C 473.71 392.17 484.57 392.56 480.26 402.07
  Q 479.55 403.61 478.52 404.09
  Q 478.18 404.25 478.38 404.56
  Z"
/>
<path d="
  M 565.43 409.51
  L 570.63 408.73
  A 0.48 0.48 0.0 0 1 571.18 409.14
  L 571.72 412.90
  A 0.48 0.48 0.0 0 1 571.30 413.44
  L 560.68 414.76
  A 0.48 0.48 0.0 0 1 560.15 414.35
  L 557.24 393.14
  A 0.48 0.48 0.0 0 1 557.66 392.60
  L 562.12 392.15
  A 0.48 0.48 0.0 0 1 562.64 392.56
  L 564.88 409.10
  A 0.48 0.48 0.0 0 0 565.43 409.51
  Z"
/>
<path d="
  M 500.51 412.99
  C 499.27 419.90 485.60 419.15 486.61 409.34
  C 487.12 404.47 487.21 399.53 487.60 394.61
  Q 487.65 394.05 488.20 394.08
  L 492.36 394.32
  Q 492.97 394.36 492.94 394.97
  Q 492.49 403.00 492.28 410.93
  Q 492.22 413.25 494.15 412.95
  A 1.35 1.35 0.0 0 0 495.30 411.70
  L 496.36 395.12
  Q 496.39 394.69 496.82 394.70
  L 501.07 394.77
  Q 501.68 394.78 501.66 395.39
  Q 501.24 408.94 500.51 412.99
  Z"
/>
<path d="
  M 510.44 416.81
  C 506.56 414.68 507.48 406.89 507.68 402.18
  C 508.15 390.98 523.37 392.74 522.12 402.51
  Q 522.06 403.00 521.56 403.00
  L 517.93 403.00
  Q 517.32 403.00 517.17 402.40
  L 516.58 400.04
  A 1.64 1.63 -48.3 0 0 513.37 400.23
  Q 512.56 406.38 513.28 412.44
  A 1.67 1.66 53.8 0 0 516.45 412.93
  Q 517.23 411.20 516.98 409.33
  Q 516.90 408.75 517.48 408.75
  L 521.73 408.75
  Q 522.20 408.75 522.23 409.22
  C 522.74 416.64 517.07 420.46 510.44 416.81
  Z"
/>
<path d="
  M 535.00 412.32
  L 540.95 412.00
  A 0.47 0.47 0.0 0 1 541.44 412.43
  L 541.82 416.20
  A 0.47 0.47 0.0 0 1 541.38 416.72
  L 529.91 417.35
  A 0.47 0.47 0.0 0 1 529.42 416.91
  L 528.30 395.40
  A 0.47 0.47 0.0 0 1 528.75 394.91
  L 540.26 394.40
  A 0.47 0.47 0.0 0 1 540.75 394.87
  L 540.75 398.44
  A 0.47 0.47 0.0 0 1 540.31 398.91
  L 534.44 399.26
  A 0.47 0.47 0.0 0 0 534.00 399.73
  L 534.00 402.61
  A 0.47 0.47 0.0 0 0 534.50 403.08
  L 539.93 402.71
  A 0.47 0.47 0.0 0 1 540.43 403.14
  L 540.78 406.91
  A 0.47 0.47 0.0 0 1 540.35 407.42
  L 534.94 407.75
  A 0.47 0.47 0.0 0 0 534.50 408.22
  L 534.50 411.85
  A 0.47 0.47 0.0 0 0 535.00 412.32
  Z"
/>
</g>
<g fill="#000000">
<path d="
  M 467.55 164.46
  L 467.48 171.42
  Q 467.47 171.87 467.92 171.95
  C 479.88 174.12 491.99 172.50 503.47 175.60
  Q 504.00 175.74 504.00 176.29
  L 504.00 178.30
  Q 504.00 179.00 503.33 178.81
  C 490.03 175.06 476.56 177.57 463.04 173.93
  Q 462.50 173.78 462.50 173.23
  L 462.50 163.11
  Q 462.50 162.75 462.85 162.85
  L 467.26 164.07
  A 0.41 0.39 -82.5 0 1 467.55 164.46
  Z"
/>
<path d="
  M 528.74 174.68
  C 540.61 173.49 552.07 174.19 563.81 170.95
  Q 564.25 170.83 564.25 171.28
  L 564.25 173.56
  Q 564.25 174.06 563.76 174.19
  C 549.10 178.02 536.84 176.03 523.15 179.03
  Q 522.75 179.11 522.75 178.70
  L 522.75 167.90
  Q 522.75 167.30 523.33 167.15
  L 527.68 165.99
  A 0.46 0.45 82.8 0 1 528.25 166.44
  L 528.25 174.24
  Q 528.25 174.73 528.74 174.68
  Z"
/>
<path d="
  M 502.81 187.44
  Q 504.90 188.03 503.79 190.48
  Q 503.62 190.86 503.21 190.75
  Q 494.57 188.49 488.43 188.52
  Q 473.17 188.58 463.14 187.24
  A 0.74 0.73 -86.5 0 1 462.50 186.51
  L 462.50 184.23
  Q 462.50 183.66 463.05 183.77
  Q 475.04 186.05 487.25 185.70
  Q 495.84 185.45 502.81 187.44
  Z"
/>
<path d="
  M 564.14 184.03
  A 0.07 0.07 0.0 0 1 564.23 184.10
  L 564.26 186.70
  Q 564.26 187.16 563.81 187.25
  C 549.95 189.83 535.18 187.92 523.28 191.14
  Q 522.75 191.29 522.75 190.74
  L 522.75 188.54
  Q 522.75 187.97 523.30 187.83
  C 532.79 185.40 542.43 185.82 551.93 185.60
  C 556.07 185.51 560.02 184.73 564.14 184.03
  Z"
/>
<path d="
  M 504.00 200.25
  L 504.00 202.48
  Q 504.00 202.92 503.57 202.81
  Q 493.56 200.18 483.26 200.61
  C 475.70 200.92 469.92 200.49 463.16 200.23
  A 0.69 0.69 0.0 0 1 462.50 199.54
  L 462.50 197.25
  Q 462.50 196.72 463.03 196.78
  C 478.12 198.51 490.28 195.98 503.46 199.55
  A 0.72 0.72 0.0 0 1 504.00 200.25
  Z"
/>
<path d="
  M 563.40 197.47
  Q 564.25 197.42 564.25 198.28
  L 564.25 199.96
  Q 564.25 200.42 563.79 200.46
  Q 548.79 201.66 533.75 201.19
  Q 529.58 201.06 523.18 203.28
  Q 522.75 203.43 522.75 202.98
  L 522.75 200.53
  Q 522.75 199.98 523.29 199.84
  C 535.97 196.60 550.29 198.19 563.40 197.47
  Z"
/>
<path d="
  M 503.96 212.66
  Q 504.36 213.62 503.87 214.74
  Q 503.69 215.17 503.25 215.01
  Q 496.32 212.59 490.00 212.80
  Q 472.54 213.37 463.02 213.27
  Q 462.50 213.26 462.50 212.74
  L 462.50 210.48
  Q 462.50 209.98 463.00 209.98
  Q 477.51 210.12 492.00 209.68
  Q 496.30 209.55 502.19 211.34
  Q 503.59 211.76 503.96 212.66
  Z"
/>
<path d="
  M 523.31 211.76
  C 535.74 208.75 548.24 210.76 563.64 210.41
  Q 564.25 210.39 564.25 211.00
  L 564.25 212.77
  A 0.72 0.72 0.0 0 1 563.53 213.49
  C 555.45 213.52 547.47 213.53 539.41 213.18
  Q 531.16 212.83 523.24 215.34
  Q 522.75 215.49 522.75 214.98
  L 522.75 212.48
  Q 522.75 211.90 523.31 211.76
  Z"
/>
<path d="
  M 463.28 226.28
  A 1.33 1.33 0.0 0 1 463.41 223.63
  C 475.89 223.18 490.60 220.63 502.94 224.04
  Q 503.40 224.17 503.44 224.65
  L 503.64 227.11
  A 0.50 0.50 0.0 0 1 502.96 227.61
  C 489.46 222.37 475.95 227.98 463.28 226.28
  Z"
/>
<path d="
  M 523.27 224.55
  C 536.80 220.75 549.99 224.36 563.68 223.99
  Q 564.25 223.97 564.25 224.54
  L 564.25 226.73
  Q 564.25 227.37 563.60 227.34
  Q 550.03 226.64 536.50 225.74
  Q 530.36 225.33 523.22 228.07
  Q 522.75 228.25 522.75 227.75
  L 522.75 225.24
  A 0.72 0.70 82.6 0 1 523.27 224.55
  Z"
/>
<path d="
  M 503.64 237.20
  L 503.45 240.01
  Q 503.43 240.46 503.01 240.28
  Q 496.15 237.36 489.25 238.02
  Q 476.13 239.28 462.99 240.43
  Q 462.50 240.48 462.50 239.99
  L 462.50 237.76
  A 0.65 0.65 0.0 0 1 463.11 237.11
  Q 475.82 236.31 488.44 235.01
  Q 496.26 234.20 503.46 236.93
  A 0.28 0.27 11.6 0 1 503.64 237.20
  Z"
/>
<path d="
  M 523.29 237.25
  C 537.32 232.58 549.67 238.07 563.66 237.47
  Q 564.25 237.44 564.25 238.03
  L 564.25 240.04
  Q 564.25 240.71 563.59 240.67
  Q 550.00 239.80 536.50 238.26
  Q 530.88 237.61 523.39 240.64
  Q 522.75 240.90 522.75 240.21
  L 522.75 237.99
  Q 522.75 237.43 523.29 237.25
  Z"
/>
</g>
<g fill="#ed1b2e">
<path d="
  M 422.05 386.27
  A 0.40 0.40 0.0 0 1 422.55 385.99
  L 422.83 386.08
  A 2.24 2.20 16.0 0 1 424.38 388.81
  L 424.33 389.00
  A 2.24 2.20 16.0 0 1 421.57 390.50
  L 421.28 390.42
  A 0.40 0.40 0.0 0 1 421.00 389.92
  L 422.05 386.27
  Z"
/>
<path d="
  M 419.57 394.69
  A 0.34 0.34 0.0 0 1 420.00 394.46
  L 420.44 394.60
  A 2.57 2.56 -72.6 0 1 422.11 397.82
  L 422.03 398.07
  A 2.57 2.56 -72.6 0 1 418.82 399.75
  L 418.38 399.62
  A 0.34 0.34 0.0 0 1 418.16 399.19
  L 419.57 394.69
  Z"
/>
<path d="
  M 472.46 397.28
  A 0.71 0.71 0.0 0 1 473.25 396.67
  L 473.54 396.71
  A 2.34 2.15 7.8 0 1 475.57 399.16
  L 475.46 399.95
  A 2.34 2.15 7.8 0 1 472.85 401.77
  L 472.56 401.73
  A 0.71 0.71 0.0 0 1 471.96 400.93
  L 472.46 397.28
  Z"
/>
</g>
</svg>
